<svg xmlns="http://www.w3.org/2000/svg" viewBox="0 0 32 32" width="32" height="32">
  <!-- Background circle -->
  <circle cx="16" cy="16" r="15" fill="#d35400" stroke="#a04000" stroke-width="2"/>
  
  <!-- Chef hat -->
  <path d="M8 12c0-4 3.5-7 8-7s8 3 8 7v2h-16v-2z" fill="#fff"/>
  <path d="M6 14h20v2c0 2-1.5 4-4 4h-12c-2.5 0-4-2-4-4v-2z" fill="#fff"/>
  
  <!-- Cooking pot -->
  <ellipse cx="16" cy="22" rx="6" ry="3" fill="#8b4513"/>
  <rect x="12" y="18" width="8" height="4" fill="#8b4513"/>
  
  <!-- Steam -->
  <circle cx="14" cy="10" r="1" fill="#fff" opacity="0.7"/>
  <circle cx="16" cy="9" r="1" fill="#fff" opacity="0.7"/>
  <circle cx="18" cy="10" r="1" fill="#fff" opacity="0.7"/>
  
  <!-- Utensils -->
  <rect x="15" y="16" width="2" height="6" fill="#fff"/>
  <rect x="13" y="18" width="6" height="2" fill="#fff"/>
</svg> 